# .PCD v0.7 - Point Cloud Data file format
VERSION 0.7
FIELDS x y z
SIZE 4 4 4
TYPE F F F
COUNT 1 1 1
WIDTH 829
HEIGHT 1
VIEWPOINT 0 0 0 1 0 0 0
POINTS 829
DATA ascii
88475.773 75166.609 601.52808
88475.852 75167.633 601.47839
88475.852 75168.844 601.46558
88475.906 75169.984 601.38757
88475.961 75171.344 601.37396
88476.023 75172.977 601.39685
88476.141 75174.789 601.39117
88476.211 75176.875 601.50409
88476.281 75178.75 601.5152
88476.359 75180.664 601.46619
88476.477 75182.727 601.49677
88476.508 75183.797 601.49127
88476.555 75184.914 601.49078
88476.594 75186.039 601.51025
88476.641 75187.203 601.53339
88476.688 75188.367 601.52008
88476.734 75189.562 601.4953
88476.805 75190.805 601.48895
88476.836 75192.062 601.50067
88476.906 75193.352 601.56592
88476.938 75194.656 601.59454
88477.016 75195.953 601.58649
88477.078 75197.266 601.56323
88477.125 75198.586 601.56757
88477.18 75199.961 601.61322
88477.227 75201.336 601.62146
88477.281 75202.734 601.62433
88477.336 75204.117 601.62286
88477.383 75205.539 601.62854
88477.438 75206.961 601.63135
88477.5 75208.414 601.6521
88477.539 75209.859 601.66785
88477.57 75211.336 601.69879
88477.625 75212.844 601.72559
88477.703 75214.328 601.71899
88477.75 75215.82 601.69537
88477.812 75217.359 601.7348
88477.828 75218.906 601.79321
88477.906 75220.414 601.75153
88477.922 75221.961 601.7536
88477.961 75223.445 601.72742
88477.961 75225.039 601.75183
88478.008 75226.484 601.78436
88478 75228.086 601.81677
88478.039 75229.562 601.78534
88478.062 75231.078 601.77649
88478.109 75232.602 601.74457
88478.133 75234.133 601.79547
88478.164 75235.68 601.80603
88478.188 75237.242 601.81354
88478.211 75238.867 601.8186
88478.242 75240.438 601.83813
88478.305 75241.984 601.85388
88478.367 75243.727 601.90704
88478.383 75245.211 601.91296
88478.406 75246.695 601.90668
88478.469 75248.242 601.901
88478.586 75250.047 601.93347
88478.688 75251.578 601.91949
88478.734 75253.109 601.92798
88478.773 75254.656 601.95917
88478.844 75256.164 601.94653
88478.852 75257.609 601.91962
88478.906 75259.117 601.94318
88478.945 75260.586 601.97137
88478.992 75262.047 601.96942
88479.047 75263.477 602.00824
88479.109 75264.914 602.0213
88479.156 75266.297 602.01654
88479.211 75267.672 602.0119
88479.234 75268.992 602.03583
88479.258 75270.336 602.05469
88479.312 75271.672 602.06189
88479.367 75272.969 602.08594
88479.352 75274.219 602.1048
88479.383 75275.469 602.12225
88479.414 75276.703 602.13202
88479.43 75277.844 602.14392
88479.469 75279.07 602.15723
88479.508 75280.195 602.14984
88479.523 75281.32 602.14105
88479.562 75282.406 602.12665
88479.562 75284.273 602.18195
88479.617 75285.93 602.18109
88479.609 75287.5 602.21967
88479.641 75288.969 602.29895
88479.633 75290.523 602.17212
88479.641 75292.023 602.27155
88479.625 75293.492 602.2597
88479.664 75295.055 602.2146
88479.664 75296.688 602.23022
88479.641 75298.469 602.23181
88479.633 75300.305 602.23859
88479.617 75302.297 602.22534
88479.586 75303.312 602.23975
88479.594 75304.414 602.23566
88479.586 75305.547 602.21661
88479.578 75306.742 602.21826
88479.562 75307.93 602.23663
88479.547 75309.148 602.27435
88479.516 75310.383 602.28503
88479.5 75311.672 602.25793
88479.523 75313.008 602.22076
88479.516 75314.344 602.21655
88479.516 75315.766 602.22803
88479.516 75317.133 602.25775
88479.492 75318.531 602.2915
88479.508 75319.938 602.26581
88479.508 75321.5 602.21582
88479.5 75322.852 602.21588
88479.516 75324.383 602.24805
88479.5 75325.953 602.26324
88479.469 75327.359 602.23767
88479.477 75328.859 602.19733
88479.461 75330.438 602.20209
88479.438 75331.914 602.21234
88479.422 75333.539 602.23584
88479.414 75334.984 602.2099
88479.414 75336.5 602.18103
88479.422 75337.969 602.2016
88479.406 75339.531 602.19684
88479.391 75341.008 602.21759
88479.383 75342.516 602.1969
88479.375 75343.992 602.18811
88479.352 75345.492 602.20508
88479.359 75347.055 602.19873
88479.352 75348.492 602.22144
88479.344 75349.984 602.17676
88479.312 75351.461 602.19397
88479.297 75353 602.20129
88479.25 75354.516 602.20276
88479.227 75356.031 602.21411
88479.188 75357.562 602.21088
88479.164 75359.055 602.18378
88479.109 75360.594 602.21686
88479.078 75362.094 602.20001
88479.047 75363.617 602.20422
88479.016 75365.133 602.2113
88478.984 75366.641 602.21503
88478.93 75368.172 602.21381
88478.891 75369.711 602.22449
88478.859 75371.219 602.19324
88478.836 75372.703 602.19403
88478.797 75374.258 602.17163
88478.766 75375.75 602.18951
88478.734 75377.266 602.19104
88478.695 75378.734 602.1767
88478.672 75380.203 602.17889
88478.633 75381.648 602.18781
88478.602 75383.086 602.17285
88478.594 75384.508 602.15076
88478.562 75385.883 602.15033
88478.523 75387.305 602.14813
88478.477 75388.688 602.15167
88478.453 75390.055 602.13562
88478.391 75391.469 602.12482
88478.328 75392.867 602.12866
88478.281 75394.234 602.0921
88478.211 75395.609 602.10107
88478.18 75397.031 602.11536
88478.117 75398.328 602.12415
88478.062 75399.688 602.1153
88478 75401.07 602.07343
88477.938 75402.43 601.98773
88477.898 75403.695 601.97388
88477.867 75405.062 602.08685
88477.859 75406.422 602.29529
88477.75 75407.805 602.13879
88477.68 75409.133 602.02197
88477.594 75410.422 602.10394
88477.555 75411.727 602.18262
88477.531 75413.148 602.24805
88477.477 75414.555 602.19452
88477.375 75415.875 602.1535
88477.344 75417.25 602.1701
88477.234 75418.617 602.21436
88477.164 75420.086 602.22589
88477.086 75421.461 602.24622
88477.008 75422.844 602.19495
88476.867 75424.391 602.16827
88476.812 75425.844 602.11719
88476.711 75427.297 602.10956
88476.625 75428.789 602.09894
88476.539 75430.203 602.05933
88476.508 75431.688 601.97046
88476.422 75433.18 601.96155
88476.352 75434.711 601.9328
88476.258 75436.18 601.86987
88476.164 75437.633 601.8396
88476.102 75439.133 601.80194
88475.984 75440.672 601.74298
88475.961 75442.141 601.77118
88475.852 75443.711 601.68933
88475.727 75445.172 601.716
88475.641 75446.688 601.64008
88475.516 75448.211 601.62317
88475.398 75449.742 601.63458
88475.281 75451.234 601.63507
88475.156 75452.75 601.58722
88475.039 75454.281 601.52917
88474.938 75455.797 601.54993
88474.805 75457.32 601.52106
88474.672 75458.867 601.49512
88474.562 75460.414 601.46448
88474.422 75461.961 601.42841
88474.281 75463.531 601.42865
88474.133 75465.078 601.42328
88474 75466.641 601.41321
88473.867 75468.195 601.35828
88473.742 75469.719 601.34485
88473.617 75471.25 601.32886
88473.5 75472.766 601.31128
88473.383 75474.273 601.24652
88473.273 75475.75 601.21686
88473.148 75477.195 601.21082
88473.031 75478.664 601.17987
88472.945 75480.141 601.16132
88472.844 75481.602 601.13824
88472.766 75483.031 601.11084
88472.664 75484.461 601.10309
88472.57 75485.859 601.07788
88472.484 75487.258 601.05609
88472.398 75488.625 601.03607
88472.328 75489.961 601.01068
88472.25 75491.281 600.96674
88472.18 75492.523 600.92682
88472.109 75493.711 600.89276
88472.047 75494.852 600.8811
88471.984 75495.945 600.87109
88471.93 75496.992 600.84674
88471.828 75498.922 600.82263
88471.742 75500.586 600.7688
88471.656 75502.062 600.81409
88471.547 75503.617 600.84174
88471.445 75505.242 600.7525
88471.336 75506.773 600.69
88471.195 75508.461 600.67542
88471.055 75510.125 600.62439
88470.922 75511.828 600.62164
88470.742 75513.562 600.6225
88470.57 75515.398 600.54675
88470.391 75517.297 600.49945
88470.328 75518.305 600.52301
88470.141 75520.328 600.4577
88470.062 75521.367 600.42987
88469.969 75522.43 600.43866
88469.859 75523.5 600.43457
88469.758 75524.57 600.41113
88469.641 75525.688 600.36664
88469.531 75526.828 600.33539
88469.422 75527.969 600.32526
88469.297 75529.109 600.31451
88469.18 75530.273 600.28162
88469.07 75531.453 600.25269
88468.953 75532.672 600.22766
88468.836 75533.906 600.22095
88468.711 75535.148 600.19537
88468.586 75536.414 600.18787
88468.453 75537.703 600.16638
88468.32 75539 600.09857
88468.195 75540.359 600.07281
88468.07 75541.703 600.06647
88467.953 75543.055 600.03345
88467.828 75544.445 600.02814
88467.68 75545.891 599.99634
88467.539 75547.227 599.94495
88467.398 75548.609 599.90533
88467.242 75550.008 599.85895
88467.07 75551.414 599.84155
88466.906 75552.836 599.82983
88466.734 75554.25 599.80609
88466.57 75555.664 599.75739
88466.414 75557.094 599.70398
88466.266 75558.555 599.68286
88466.109 75560 599.66907
88465.984 75561.453 599.62897
88465.844 75562.914 599.61115
88465.711 75564.328 599.5658
88465.562 75565.727 599.50793
88465.445 75567.094 599.47778
88465.328 75568.461 599.47284
88465.227 75569.773 599.46729
88465.133 75571.062 599.40881
88465.055 75572.273 599.37897
88464.984 75573.438 599.33124
88464.922 75574.539 599.31421
88464.867 75575.617 599.28406
88464.758 75577.57 599.30853
88464.664 75579.328 599.24054
88464.578 75580.93 599.2215
88464.531 75582.375 599.18823
88464.469 75583.602 599.16809
88464.305 75584.602 599.14636
88463.977 75585.773 599.12506
88463.297 75586.875 599.09509
88462.422 75587.711 599.08496
88461.586 75588.164 599.05121
88460.586 75588.414 599.00092
88459.508 75588.414 598.98553
88458.453 75588.195 598.92108
88457.516 75587.68 598.88086
88456.742 75586.891 598.84448
88457.008 75586.602 598.86945
88457.242 75586.461 598.88464
88457.031 75585.594 598.89209
88457.023 75584.562 598.88593
88457.125 75583.469 598.95038
88457.367 75582.211 598.95673
88457.656 75580.703 598.96252
88457.984 75579.047 599.04694
88458.281 75577.312 599.05212
88458.57 75575.469 599.10406
88458.812 75573.703 599.16705
88459.031 75571.922 599.24127
88459.297 75569.961 599.22888
88459.43 75568.961 599.24152
88459.555 75567.93 599.27936
88459.68 75566.906 599.2912
88459.82 75565.859 599.31793
88459.945 75564.766 599.367
88460.078 75563.672 599.3963
88460.195 75562.555 599.41473
88460.344 75561.453 599.3938
88460.477 75560.312 599.4173
88460.633 75559.125 599.5069
88460.773 75557.945 599.56543
88460.93 75556.742 599.57452
88461.086 75555.523 599.57141
88461.227 75554.281 599.58008
88461.359 75553.031 599.62866
88461.523 75551.75 599.66132
88461.68 75550.461 599.69232
88461.836 75549.156 599.69531
88462 75547.844 599.71625
88462.164 75546.484 599.7597
88462.336 75545.094 599.78156
88462.492 75543.711 599.78394
88462.648 75542.352 599.78888
88462.781 75541.016 599.82819
88462.914 75539.656 599.91254
88463.047 75538.32 599.90527
88463.188 75537.039 599.91351
88463.305 75535.789 599.92267
88463.461 75534.539 599.89648
88463.562 75533.367 599.97894
88463.68 75532.18 600.02997
88463.789 75531.008 600.05145
88463.914 75529.852 600.05634
88463.992 75528.641 600.0871
88464.078 75527.477 600.07025
88464.188 75526.336 600.06683
88464.297 75525.273 600.09973
88464.383 75524.242 600.15833
88464.484 75523.164 600.18951
88464.594 75522.086 600.2074
88464.695 75521.039 600.20959
88464.797 75520.023 600.20099
88464.992 75518.117 600.25549
88465.164 75516.281 600.29913
88465.328 75514.555 600.35144
88465.492 75512.898 600.39563
88465.648 75511.273 600.3692
88465.781 75509.695 600.43347
88465.938 75508.164 600.47571
88466.078 75506.609 600.46893
88466.195 75505.156 600.60199
88466.352 75503.688 600.59003
88466.492 75502.164 600.51532
88466.625 75500.711 600.7066
88466.781 75499.172 600.59644
88466.961 75497.5 600.64508
88467.156 75495.703 600.68311
88467.367 75493.766 600.72791
88467.484 75492.742 600.75531
88467.586 75491.688 600.79767
88467.727 75490.609 600.79309
88467.852 75489.508 600.76849
88467.961 75488.336 600.79291
88468.086 75487.164 600.8587
88468.219 75485.961 600.91315
88468.328 75484.758 600.90796
88468.469 75483.531 600.88672
88468.547 75482.258 600.9176
88468.656 75480.984 600.95294
88468.789 75479.711 600.98389
88468.883 75478.406 601.03723
88468.977 75477.07 601.0462
88469.062 75475.719 601.04321
88469.172 75474.398 601.06488
88469.266 75473.062 601.08685
88469.367 75471.68 601.13428
88469.469 75470.367 601.13885
88469.57 75469.062 601.19244
88469.664 75467.758 601.23206
88469.758 75466.453 601.22162
88469.875 75465.148 601.24243
88469.977 75463.875 601.27435
88470.055 75462.594 601.32819
88470.133 75461.383 601.34229
88470.211 75460.203 601.32825
88470.305 75459.039 601.31042
88470.375 75457.922 601.30701
88470.445 75456.844 601.32245
88470.484 75455.773 601.36108
88470.562 75454.758 601.383
88470.711 75452.805 601.39166
88470.836 75450.797 601.40094
88470.93 75448.844 601.40167
88471.008 75446.859 601.41638
88471.07 75444.898 601.43982
88471.164 75443.047 601.47235
88471.219 75441.148 601.40112
88471.297 75439.445 601.47192
88471.289 75437.703 601.54828
88471.406 75436.047 601.47308
88471.406 75434.273 601.53717
88471.445 75432.469 601.61328
88471.688 75430.664 601.57721
88472.031 75428.891 601.61139
88472.5 75427.172 601.68231
88473.133 75425.492 601.78961
88473.867 75423.922 601.90601
88474.75 75422.492 601.94604
88475.781 75421.203 602.07635
88476.805 75420.133 602.18604
88478.031 75419.352 602.25861
88479.414 75418.648 602.39038
88481 75418.172 602.54572
88482.695 75417.969 602.70374
88484.398 75417.883 602.82324
88486.188 75417.859 603.01495
88488.094 75417.953 603.27594
88490.07 75418 603.50012
88491.148 75417.922 603.67035
88492.188 75417.859 603.78375
88494.172 75417.836 604.0141
88495.289 75417.656 604.08203
88496.305 75417.586 604.27789
88497.352 75417.438 604.37494
88498.375 75417.312 604.48499
88499.562 75417.039 604.59497
88500.602 75416.859 604.70508
88501.734 75416.617 604.81781
88502.844 75416.359 604.9201
88504.039 75416.125 605.06024
88505.188 75415.82 605.22516
88506.336 75415.555 605.32111
88507.516 75415.289 605.44733
88508.797 75414.945 605.5954
88510.031 75414.594 605.72852
88511.242 75414.258 605.84369
88512.523 75413.922 605.99774
88513.773 75413.602 606.17017
88515.094 75413.227 606.29047
88516.391 75412.875 606.39056
88517.672 75412.484 606.54199
88519.031 75412.117 606.69568
88520.406 75411.797 606.90222
88521.703 75411.422 607.04919
88523.055 75411.055 607.17926
88524.375 75410.68 607.30157
88525.914 75410.273 607.45117
88527.312 75409.914 607.65967
88528.547 75409.555 607.80078
88529.93 75409.141 607.97351
88531.375 75408.727 608.13934
88532.727 75408.312 608.26978
88534.023 75407.945 608.41229
88535.305 75407.539 608.58594
88536.758 75407.117 608.70105
88538.133 75406.68 608.8573
88539.562 75406.297 609.00293
88540.82 75405.891 609.1524
88542.219 75405.438 609.34558
88543.578 75405.055 609.48169
88544.891 75404.617 609.6156
88546.219 75404.141 609.80127
88547.508 75403.719 609.95691
88548.844 75403.32 610.11273
88550.227 75402.867 610.26862
88551.562 75402.453 610.41083
88552.914 75402.109 610.53302
88554.32 75401.641 610.70508
88555.688 75401.305 610.79034
88556.977 75400.906 610.95306
88558.195 75400.555 611.20612
88559.539 75400.227 611.40479
88560.852 75399.938 611.55786
88562.234 75399.555 611.66125
88563.57 75399.18 611.77563
88564.867 75398.836 612.00964
88566.164 75398.484 612.19006
88567.477 75398.141 612.3327
88568.82 75397.773 612.48718
88570.016 75397.422 612.61353
88571.336 75397.055 612.79608
88572.578 75396.742 612.95142
88573.797 75396.375 613.10657
88575.062 75395.969 613.25763
88576.336 75395.625 613.40771
88577.578 75395.227 613.54004
88578.758 75394.883 613.63226
88579.945 75394.516 613.82788
88581.086 75394.203 613.93439
88582.266 75393.836 614.06409
88583.367 75393.477 614.20453
88584.602 75393.102 614.30554
88585.578 75392.828 614.43658
88586.617 75392.531 614.58282
88587.727 75392.188 614.71985
88588.875 75391.859 614.88092
88590.125 75391.477 615.03119
88591.297 75391.141 615.17322
88592.445 75390.797 615.32812
88593.602 75390.445 615.44769
88594.695 75390.102 615.63147
88595.836 75389.734 615.71118
88596.984 75389.359 615.83661
88598.047 75389.031 615.95215
88599.117 75388.664 616.10303
88600.148 75388.281 616.25671
88602.023 75387.508 616.48425
88603.695 75386.742 616.68903
88605.219 75385.977 616.91443
88606.641 75385.164 617.05225
88607.828 75384.367 617.23279
88609.07 75383.586 617.37787
88610.383 75382.789 617.5224
88611.508 75382.156 617.67072
88612.68 75381.719 617.78918
88613.875 75381.602 617.9599
88615.109 75381.648 618.12427
88616.125 75382.078 618.25354
88617.203 75382.883 618.34918
88617.969 75383.891 618.46387
88618.367 75385.133 618.51288
88618.453 75386.047 618.50134
88618.312 75387.016 618.48096
88617.914 75387.945 618.40839
88617.344 75388.797 618.34601
88616.523 75389.477 618.20197
88615.516 75390.133 618.08081
88614.359 75390.578 617.93311
88613.078 75390.914 617.71289
88611.695 75391.164 617.57843
88610.234 75391.367 617.42261
88608.703 75391.57 617.24487
88607.188 75391.797 616.98846
88605.648 75392 616.89594
88604.008 75392.273 616.66595
88602.422 75392.578 616.4328
88600.773 75392.953 616.22998
88599.102 75393.266 616.06537
88597.352 75393.695 615.89606
88595.492 75394.102 615.61615
88594.484 75394.32 615.52441
88593.516 75394.547 615.42267
88592.539 75394.75 615.2923
88591.516 75395.008 615.15765
88590.414 75395.258 615.06879
88589.352 75395.516 614.93268
88588.25 75395.789 614.80334
88587.117 75396.078 614.66095
88585.93 75396.367 614.51062
88584.703 75396.688 614.35925
88583.406 75397.023 614.23029
88582.086 75397.398 614.05603
88580.789 75397.773 613.89032
88579.438 75398.117 613.73444
88578.023 75398.523 613.60663
88576.641 75398.914 613.37665
88575.211 75399.305 613.20355
88573.766 75399.719 613.05865
88572.32 75400.141 612.87408
88570.945 75400.531 612.70526
88569.531 75400.945 612.50909
88568.094 75401.32 612.35071
88566.656 75401.75 612.18982
88565.289 75402.133 612.0329
88563.922 75402.523 611.85065
88562.539 75402.875 611.68927
88561.133 75403.305 611.52832
88559.805 75403.672 611.36401
88558.477 75404.07 611.21277
88557.117 75404.477 611.03998
88555.812 75404.828 610.88141
88554.461 75405.234 610.73285
88553.18 75405.625 610.5462
88551.906 75406.008 610.38287
88550.555 75406.406 610.24432
88549.203 75406.797 610.11169
88547.914 75407.156 609.96362
88546.617 75407.484 609.82782
88545.328 75407.891 609.62469
88544.039 75408.305 609.44305
88542.719 75408.664 609.26343
88541.266 75409.109 609.15344
88539.922 75409.492 609.02905
88538.469 75409.828 608.92603
88537.25 75410.258 608.73102
88535.938 75410.672 608.56805
88534.602 75411.047 608.42474
88533.305 75411.469 608.29602
88532 75411.844 608.15527
88530.734 75412.227 608.01416
88529.43 75412.57 607.87158
88528.188 75412.969 607.71509
88526.867 75413.344 607.57007
88525.586 75413.727 607.39899
88524.375 75414.078 607.25433
88523.102 75414.484 607.14594
88521.906 75414.82 606.99744
88520.602 75415.211 606.82849
88519.383 75415.562 606.69714
88518.164 75415.922 606.58154
88516.812 75416.32 606.46997
88515.586 75416.719 606.3396
88514.258 75417.07 606.22705
88513.047 75417.492 606.03662
88511.727 75417.781 605.85608
88510.484 75418.172 605.7218
88509.195 75418.555 605.61914
88507.898 75418.938 605.49884
88506.703 75419.297 605.34186
88505.461 75419.648 605.19647
88504.211 75419.984 605.07501
88503.031 75420.336 604.9632
88501.789 75420.688 604.83313
88500.594 75421.023 604.6955
88499.477 75421.32 604.56024
88498.359 75421.656 604.44434
88497.266 75421.992 604.3772
88496.203 75422.297 604.25037
88495.18 75422.562 604.11578
88494.164 75422.812 603.97778
88493.203 75423.086 603.88043
88492.234 75423.32 603.80945
88491.266 75423.578 603.69073
88489.359 75424 603.46417
88487.367 75424.227 603.23511
88485.531 75424.211 603.06378
88483.547 75423.953 602.79639
88482.531 75423.766 602.71448
88481.562 75423.406 602.60339
88479.789 75422.477 602.4223
88478.914 75421.852 602.35443
88477.43 75420.531 602.21045
88476.156 75418.938 602.07111
88475.617 75418.086 602.04395
88474.703 75416.297 601.96912
88474.352 75415.328 601.92755
88474.086 75414.32 601.91772
88473.875 75413.273 601.94293
88473.742 75412.25 601.94104
88473.648 75411.25 601.93317
88473.656 75410.203 601.88739
88473.672 75409.141 601.85846
88473.703 75408.047 601.88281
88473.742 75407.039 601.92865
88473.727 75406.023 601.92926
88473.812 75404.812 602.01141
88473.922 75403.711 601.97644
88473.984 75402.672 601.85645
88474.023 75401.594 601.85645
88474.062 75400.5 601.9115
88474.078 75399.297 602.03021
88474.109 75398.141 602.06128
88474.156 75396.953 602.03162
88474.156 75395.82 601.98303
88474.18 75394.641 601.97003
88474.211 75393.406 602.01355
88474.242 75392.195 602.0625
88474.258 75390.93 602.08087
88474.281 75389.68 602.04968
88474.305 75388.383 602.03253
88474.32 75387.078 602.01562
88474.336 75385.75 602.04047
88474.359 75384.398 602.08032
88474.367 75383.055 602.05078
88474.406 75381.648 602.02325
88474.43 75380.258 602.00861
88474.469 75378.859 602.02277
88474.492 75377.445 602.05377
88474.539 75375.984 602.11359
88474.578 75374.586 602.08624
88474.648 75373.086 602.08295
88474.695 75371.609 602.0246
88474.758 75370.133 602.01575
88474.789 75368.656 602.08264
88474.844 75367.117 602.07867
88474.906 75365.57 602.10205
88474.938 75364.031 602.09113
88474.992 75362.492 602.0899
88475.039 75360.938 602.10724
88475.086 75359.438 602.11938
88475.141 75357.891 602.11383
88475.172 75356.414 602.12067
88475.219 75354.82 602.11786
88475.273 75353.344 602.10699
88475.297 75351.781 602.10547
88475.352 75350.234 602.09784
88475.375 75348.664 602.11383
88475.406 75347.086 602.11121
88475.422 75345.531 602.11554
88475.453 75343.875 602.10187
88475.477 75342.32 602.10907
88475.523 75340.664 602.08478
88475.547 75339.078 602.12
88475.57 75337.398 602.14264
88475.602 75335.75 602.13861
88475.641 75334.07 602.09583
88475.656 75332.414 602.1225
88475.68 75330.766 602.14026
88475.688 75329.039 602.1665
88475.727 75327.398 602.14423
88475.742 75325.719 602.12286
88475.742 75324.094 602.12567
88475.742 75322.461 602.18176
88475.758 75320.867 602.17419
88475.758 75319.297 602.17963
88475.766 75317.766 602.19299
88475.758 75316.25 602.1507
88475.758 75314.781 602.16174
88475.75 75313.289 602.16644
88475.742 75311.82 602.19427
88475.727 75310.391 602.19189
88475.719 75309.023 602.15143
88475.688 75307.602 602.12537
88475.656 75306.219 602.1416
88475.609 75304.82 602.18237
88475.578 75303.516 602.18298
88475.547 75302.281 602.14484
88475.516 75301.102 602.12158
88475.469 75300 602.09711
88475.453 75298.859 602.11383
88475.422 75297.703 602.12091
88475.406 75296.586 602.11035
88475.383 75295.531 602.09894
88475.375 75294.516 602.08478
88475.375 75293.445 602.10748
88475.289 75292.375 602.1319
88475.328 75290.664 602.16919
88475.305 75289.664 602.09064
88475.25 75287.898 602.14819
88475.234 75286.133 602.01941
88475.203 75284.43 602.00195
88475.172 75282.641 602.02734
88475.156 75280.828 602.04498
88475.141 75278.906 602.00677
88475.156 75276.883 601.99243
88475.148 75275.812 602.00653
88475.125 75274.75 601.99493
88475.133 75273.672 601.98431
88475.125 75272.523 601.98425
88475.117 75271.375 601.99152
88475.109 75270.227 601.98834
88475.094 75269.016 601.94519
88475.07 75267.797 601.93207
88475.031 75266.547 601.94904
88475.031 75265.289 601.95508
88475.016 75264.023 601.95618
88474.992 75262.727 601.90497
88474.969 75261.398 601.86407
88474.938 75260.078 601.8609
88474.891 75258.703 601.84668
88474.844 75257.32 601.87762
88474.812 75255.898 601.84705
88474.758 75254.492 601.87537
88474.719 75253.023 601.85913
88474.664 75251.57 601.85583
88474.625 75250.078 601.8374
88474.57 75248.57 601.82135
88474.523 75247.031 601.8053
88474.477 75245.492 601.80975
88474.398 75243.953 601.82678
88474.344 75242.398 601.82343
88474.281 75240.844 601.79803
88474.203 75239.305 601.78741
88474.156 75237.758 601.75098
88474.102 75236.195 601.73773
88474.023 75234.68 601.74365
88473.945 75233.117 601.73956
88473.883 75231.539 601.70135
88473.82 75229.969 601.71881
88473.758 75228.359 601.69135
88473.688 75226.766 601.68298
88473.617 75225.133 601.68359
88473.562 75223.5 601.6886
88473.492 75221.859 601.66144
88473.422 75220.18 601.66003
88473.352 75218.5 601.68713
88473.281 75216.789 601.68842
88473.227 75215.117 601.62225
88473.156 75213.453 601.58325
88473.086 75211.797 601.6131
88473 75210.141 601.62183
88472.898 75208.469 601.59851
88472.82 75206.812 601.54572
88472.734 75205.133 601.52069
88472.648 75203.547 601.5249
88472.562 75201.953 601.4975
88472.477 75200.289 601.47974
88472.383 75198.727 601.48285
88472.297 75197.117 601.46295
88472.211 75195.633 601.46014
88472.117 75194.148 601.47638
88472.039 75192.664 601.45184
88471.945 75191.203 601.44812
88471.852 75189.711 601.44476
88471.773 75188.273 601.41333
88471.688 75186.836 601.39594
88471.594 75185.414 601.39844
88471.5 75184.031 601.41028
88471.414 75182.656 601.42505
88471.328 75181.305 601.40472
88471.227 75179.953 601.3822
88471.125 75178.617 601.3222
88471.055 75177.305 601.28992
88470.977 75176.047 601.29541
88470.891 75174.836 601.32416
88470.812 75173.625 601.31134
88470.727 75172.469 601.30219
88470.656 75171.414 601.26819
88470.5 75169.523 601.27716
88470.359 75167.883 601.27991
88470.211 75166.477 601.20294
88470.125 75165.289 601.21716
88470 75163.922 601.15381
88469.906 75162.828 601.15558
